<svg id="Capa_1" enable-background="new 0 0 512.03 512.03" height="512" viewBox="0 0 512.03 512.03" width="512" xmlns="http://www.w3.org/2000/svg"><g><path d="m374.232 158.277c11.484-11.455 27.627-16.187 41.177-12.158 26.572 7.983 55.093.732 74.634-18.809 29.262-29.231 29.372-76.714 0-106.055-28.301-28.33-77.754-28.33-106.055 0-19.556 19.526-26.763 48.135-18.809 74.648 4.072 13.535-.703 29.692-12.158 41.162l-14.941 15.161c-.366.278-38.178 27.781-82.064 27.781-42.935 0-79.116-26.375-79.424-26.375v.015l-17.582-16.582c-11.455-11.47-16.23-27.627-12.158-41.177 7.954-26.499.747-55.107-18.809-74.634-28.301-28.33-77.754-28.33-106.055 0-29.262 29.231-29.372 76.714 0 106.055 19.512 19.526 48.105 26.733 74.648 18.809 13.521-4.028 29.707.703 41.162 12.158l15.216 15.747c.571.771 28.001 38.343 28.001 81.984 0 41.678-24.886 77.584-27.556 81.345l-15.661 15.661c-11.455 11.484-27.598 16.274-41.177 12.158-26.528-7.954-55.093-.747-74.634 18.809-29.262 29.231-29.372 76.714 0 106.055 29.231 29.262 76.714 29.372 106.055 0 19.556-19.526 26.763-48.135 18.809-74.648-4.072-13.535.703-29.692 12.158-41.162l15.941-15.161c.366-.278 37.178-28.056 81.064-28.056 42.935 0 80.116 26.649 80.424 26.649 0 0 0 0 0-.015l16.582 16.582c11.455 11.47 16.23 27.627 12.158 41.177-7.954 26.499-.747 55.107 18.809 74.634 29.231 29.262 76.714 29.372 106.055 0 29.262-29.231 29.372-76.714 0-106.055-19.526-19.556-48.179-26.777-74.648-18.809-13.491 4.072-29.678-.688-41.162-12.158l-15.216-15.022c-.571-.771-27.001-38.343-27.001-81.984 0-41.678 23.886-77.584 26.556-81.345zm62.783-105.205 21.211 21.211-21.211 21.211-21.211-21.211zm-362 42.421-21.211-21.211 21.211-21.211 21.211 21.211zm0 362.726-21.211-21.211 21.211-21.211 21.211 21.211zm362-42.422 21.211 21.211-21.211 21.211-21.211-21.211zm-181-138.578-21.211-21.211 21.211-21.211 21.211 21.211z"/></g></svg>